<svg width="109" height="107" viewBox="0 0 109 107" fill="none" xmlns="http://www.w3.org/2000/svg">
<path d="M29.5576 94.3146L34.7573 88.9096L36.1516 89.6093L35.0681 94.9854L38.731 90.9038L40.1253 91.6035L38.9109 99.0084L37.5631 98.3321L38.81 92.5143L34.8675 96.9793L33.4849 96.2854L34.755 90.5084L30.859 94.9676L29.5576 94.3146Z" fill="#1F0C3E"/>
<path d="M19.7943 80.4064C20.0005 80.2342 20.1978 80.0919 20.3863 79.9796L23.8954 84.1796C24.3066 83.7796 24.5229 83.3221 24.5445 82.8072C24.566 82.2923 24.399 81.8221 24.0433 81.3964C23.5321 80.7845 22.9149 80.5661 22.1916 80.7413L21.1664 79.5142C21.8108 79.2582 22.4793 79.2135 23.1719 79.3802C23.8523 79.5457 24.4621 79.9511 25.0011 80.5962C25.44 81.1216 25.7182 81.6911 25.8355 82.3046C25.9406 82.917 25.8803 83.5207 25.6547 84.1158C25.4169 84.7097 25.0153 85.2429 24.45 85.7152C23.8847 86.1875 23.2947 86.4884 22.6801 86.6179C22.0533 86.7464 21.4513 86.7016 20.874 86.4838C20.2911 86.2592 19.7747 85.8776 19.3246 85.3389C18.8911 84.8201 18.618 84.2634 18.5052 83.6688C18.3923 83.0742 18.4476 82.4915 18.6711 81.9209C18.8878 81.3558 19.2623 80.851 19.7943 80.4064ZM20.4271 81.8937C20.0136 82.2504 19.8028 82.6807 19.7945 83.1845C19.7863 83.6883 19.9628 84.1563 20.324 84.5886C20.6518 84.981 21.0588 85.2113 21.5449 85.2795C22.0244 85.3532 22.4992 85.2389 22.9693 84.9364L20.4271 81.8937Z" fill="#1F0C3E"/>
<path d="M6.05231 61.1855L15.5833 59.8799L15.7844 61.3482L6.25344 62.6537L6.05231 61.1855Z" fill="#1F0C3E"/>
<path d="M15.8649 48.6398C15.7453 49.3052 15.4879 49.8797 15.0927 50.3634C14.689 50.8455 14.1865 51.191 13.5854 51.3999C12.9757 51.6073 12.3084 51.6458 11.5833 51.5154C10.8668 51.3865 10.2598 51.1144 9.76207 50.6991C9.26439 50.2838 8.91537 49.7764 8.715 49.1768C8.51463 48.5772 8.47504 47.9404 8.59623 47.2666C8.71742 46.5927 8.97637 46.0097 9.37309 45.5175C9.76981 45.0252 10.2738 44.6712 10.885 44.4553C11.4962 44.2394 12.16 44.1959 12.8765 44.3247C13.593 44.4536 14.1994 44.73 14.6955 45.1538C15.1916 45.5776 15.5426 46.0987 15.7485 46.7169C15.9473 47.325 15.9861 47.966 15.8649 48.6398ZM14.5983 48.412C14.6657 48.0367 14.6391 47.6709 14.5182 47.3145C14.3989 46.9497 14.1786 46.6327 13.8571 46.3635C13.5357 46.0944 13.1191 45.9138 12.6073 45.8217C12.0955 45.7297 11.6471 45.7503 11.2621 45.8836C10.8686 46.0154 10.5531 46.2272 10.3157 46.5191C10.0783 46.811 9.9258 47.1447 9.85831 47.52C9.79081 47.8953 9.81748 48.2611 9.93831 48.6175C10.0607 48.9653 10.2841 49.2652 10.6086 49.5173C10.9246 49.7679 11.3385 49.9392 11.8503 50.0312C12.6094 50.1677 13.2325 50.0817 13.7195 49.773C14.1995 49.4542 14.4924 49.0006 14.5983 48.412Z" fill="#1F0C3E"/>
<path d="M19.5761 34.1727L15.6439 29.4061L16.4616 28.0623L21.1617 34.1179L20.2426 35.6283L12.7111 34.2259L13.5355 32.871L19.5761 34.1727Z" fill="#1F0C3E"/>
<path d="M30.4832 19.0216C30.6469 19.2346 30.7811 19.4375 30.8857 19.6304L26.5469 22.9664C26.9299 23.3934 27.3782 23.6281 27.8918 23.6705C28.4054 23.7129 28.8821 23.5651 29.3218 23.227C29.9539 22.741 30.1971 22.1331 30.0514 21.4033L31.3191 20.4287C31.5488 21.0829 31.5663 21.7527 31.3717 22.438C31.1787 23.1112 30.7489 23.7039 30.0825 24.2164C29.5397 24.6337 28.9595 24.8885 28.3417 24.9808C27.7256 25.061 27.1248 24.9763 26.5393 24.7268C25.9555 24.4651 25.4391 24.0422 24.9901 23.4582C24.541 22.8742 24.2643 22.2725 24.1598 21.6532C24.0569 21.0217 24.126 20.422 24.3671 19.854C24.6151 19.2807 25.0173 18.7802 25.5738 18.3523C26.1097 17.9402 26.6771 17.6899 27.2758 17.6013C27.8745 17.5126 28.4544 17.5915 29.0155 17.8379C29.5714 18.0774 30.0606 18.4719 30.4832 19.0216ZM28.9715 19.5935C28.6318 19.1659 28.2105 18.9378 27.7074 18.9092C27.2044 18.8805 26.7296 19.0379 26.283 19.3813C25.8776 19.6929 25.631 20.0902 25.5432 20.5732C25.4501 21.0493 25.5451 21.5283 25.8282 22.0103L28.9715 19.5935Z" fill="#1F0C3E"/>
<path d="M49.0418 12.1001C49.0116 11.3641 49.1324 10.7129 49.4041 10.1467C49.6841 9.57138 50.082 9.12137 50.5978 8.79664C51.1136 8.47191 51.7135 8.29553 52.3976 8.26749C53.2636 8.23199 53.9865 8.41054 54.5664 8.80311C55.1546 9.18668 55.5639 9.75539 55.7943 10.5093L54.1966 10.5747C54.0522 10.225 53.833 9.95645 53.5391 9.769C53.2452 9.58155 52.8817 9.49669 52.4487 9.51444C51.8426 9.53929 51.3665 9.77565 51.0206 10.2235C50.6829 10.6624 50.5299 11.2672 50.5615 12.0378C50.5931 12.8085 50.7953 13.4031 51.1681 13.8215C51.5495 14.2396 52.0433 14.4362 52.6495 14.4113C53.5067 14.3762 54.0585 13.9763 54.3047 13.2115L55.9024 13.146C55.7244 13.882 55.3585 14.4781 54.8047 14.9345C54.2506 15.3822 53.5492 15.6235 52.7006 15.6583C52.0165 15.6863 51.4041 15.5596 50.8635 15.2782C50.3225 14.9881 49.8891 14.5722 49.5633 14.0304C49.2458 13.4796 49.072 12.8362 49.0418 12.1001Z" fill="#1F0C3E"/>
<path d="M69.4772 10.6489C69.9942 10.8246 70.416 11.0916 70.7428 11.4498C71.0777 11.8109 71.2861 12.2479 71.368 12.7609C71.4581 13.2767 71.3986 13.8423 71.1893 14.4577L69.8293 18.4578L68.4385 17.9849L69.7274 14.1941C69.9338 13.5869 69.9396 13.0716 69.7448 12.6484C69.5528 12.217 69.1943 11.912 68.6691 11.7334C68.144 11.5549 67.6697 11.5767 67.2463 11.7989C66.8339 12.0157 66.5245 12.4277 66.318 13.0349L65.0292 16.8258L63.626 16.3488L66.7227 7.24077L68.1258 7.71782L67.0671 10.8318C67.4027 10.6255 67.7775 10.5058 68.1915 10.4726C68.6138 10.4422 69.0424 10.501 69.4772 10.6489Z" fill="#1F0C3E"/>
<path d="M84.766 23.9229C84.5909 24.1266 84.4196 24.2994 84.252 24.4411L80.1018 20.8732C79.7618 21.3352 79.6234 21.822 79.6865 22.3334C79.7497 22.8449 79.9916 23.2814 80.4122 23.643C81.0168 24.1628 81.6615 24.277 82.3463 23.9857L83.5588 25.028C82.9652 25.3863 82.313 25.54 81.6024 25.4891C80.9041 25.4373 80.2361 25.1374 79.5986 24.5894C79.0795 24.143 78.7117 23.6269 78.4954 23.0409C78.2914 22.4541 78.2518 21.8486 78.3768 21.2246C78.514 20.5997 78.8227 20.0079 79.303 19.4493C79.7832 18.8907 80.3158 18.4971 80.9009 18.2686C81.4981 18.0392 82.0994 17.9846 82.7046 18.1049C83.3163 18.2308 83.8884 18.5226 84.4207 18.9802C84.9333 19.4209 85.2941 19.9252 85.5029 20.4933C85.7117 21.0614 85.7526 21.6452 85.6258 22.2448C85.5046 22.8378 85.218 23.3972 84.766 23.9229ZM83.898 22.5595C84.2474 22.1399 84.3848 21.6808 84.3104 21.1825C84.2359 20.6842 83.9851 20.2514 83.5579 19.8842C83.1701 19.5508 82.7309 19.3904 82.2402 19.4028C81.7551 19.4087 81.3055 19.5994 80.8913 19.9748L83.898 22.5595Z" fill="#1F0C3E"/>
<path d="M98.224 38.2082C98.4486 38.7249 98.5417 39.2325 98.5034 39.7312C98.4684 40.2378 98.2905 40.6979 97.9694 41.1115C97.6518 41.5331 97.195 41.8734 96.5989 42.1326L92.7242 43.817L92.1385 42.4698L95.8105 40.8735C96.3987 40.6178 96.7838 40.2755 96.9659 39.8467C97.156 39.4144 97.1405 38.9439 96.9194 38.4352C96.6982 37.9265 96.363 37.5903 95.9138 37.4265C95.476 37.2672 94.963 37.3153 94.3749 37.571L90.7028 39.1674L90.1172 37.8202L93.7892 36.2238C94.3773 35.9681 94.7625 35.6259 94.9446 35.197C95.1347 34.7648 95.1192 34.2943 94.898 33.7856C94.6769 33.2769 94.3417 32.9407 93.8925 32.7768C93.4547 32.6175 92.9417 32.6657 92.3535 32.9214L88.6815 34.5177L88.0906 33.1586L94.6597 30.3028L95.2506 31.6619L94.4995 31.9885C94.8665 32.0935 95.1998 32.2841 95.4994 32.5603C95.799 32.8364 96.0334 33.1692 96.2027 33.5586C96.4308 34.0832 96.5233 34.6005 96.4805 35.1105C96.4376 35.6206 96.2539 36.0785 95.9294 36.4841C96.4132 36.5101 96.8619 36.6836 97.2755 37.0046C97.6971 37.3222 98.0133 37.7234 98.224 38.2082Z" fill="#1F0C3E"/>
<path d="M102.044 53.1116C102.036 52.8431 102.121 52.6153 102.298 52.4283C102.475 52.2414 102.697 52.1441 102.966 52.1367C103.234 52.1293 103.462 52.214 103.649 52.3909C103.836 52.5677 103.933 52.7905 103.941 53.059C103.948 53.3189 103.863 53.5424 103.686 53.7293C103.509 53.9163 103.287 54.0135 103.018 54.021C102.75 54.0284 102.522 53.9437 102.335 53.7668C102.148 53.5899 102.051 53.3715 102.044 53.1116ZM101.115 53.8657L93.9548 54.0643L93.9137 52.5828L101.074 52.3842L101.115 53.8657Z" fill="#1F0C3E"/>
<path d="M92.5823 64.7184C92.7266 64.1738 92.9528 63.7093 93.261 63.3247C93.5752 62.9507 93.9332 62.6825 94.3349 62.52C94.745 62.3596 95.1617 62.3266 95.585 62.4209L95.1921 63.9037C94.8922 63.8511 94.6084 63.9239 94.3408 64.1219C94.0793 64.3305 93.8975 64.6275 93.7954 65.0129C93.6888 65.415 93.6821 65.745 93.7751 66.0028C93.8744 66.2711 94.0455 66.4375 94.2884 66.5019C94.5481 66.5707 94.7741 66.4961 94.9664 66.2781C95.1564 66.0684 95.3978 65.7155 95.6907 65.2193C95.9708 64.7376 96.2211 64.3512 96.4417 64.06C96.6624 63.7688 96.9431 63.5383 97.2839 63.3686C97.6225 63.2073 98.018 63.1866 98.4704 63.3065C98.839 63.4042 99.1453 63.6019 99.3891 63.8996C99.6414 64.1996 99.8022 64.5739 99.8716 65.0227C99.9387 65.4798 99.9024 65.9722 99.7625 66.5C99.5538 67.2875 99.1852 67.8667 98.6565 68.2377C98.134 68.6192 97.5248 68.7358 96.829 68.5872L97.2086 67.1547C97.5252 67.2117 97.8057 67.1515 98.0499 66.9742C98.2942 66.7968 98.4674 66.5154 98.5695 66.1301C98.6694 65.7531 98.6747 65.4452 98.5856 65.2064C98.4965 64.9676 98.3346 64.8171 98.1 64.7549C97.9157 64.7061 97.743 64.7321 97.5818 64.8328C97.4206 64.9335 97.2768 65.0703 97.1504 65.243C97.0323 65.4179 96.8688 65.6794 96.66 66.0275C96.3928 66.4947 96.1458 66.8686 95.919 67.1492C95.6984 67.4404 95.423 67.6677 95.0927 67.8313C94.7625 67.9948 94.3742 68.0219 93.928 67.9126C93.5343 67.8083 93.2113 67.6062 92.959 67.3062C92.7068 67.0062 92.546 66.6319 92.4766 66.1832C92.405 65.7428 92.4403 65.2545 92.5823 64.7184Z" fill="#1F0C3E"/>
<path d="M92.9981 78.9066L89.6376 76.8022C89.4099 76.6597 89.2124 76.6076 89.0452 76.646C88.8807 76.6964 88.7179 76.8501 88.5569 77.1072L88.074 77.8785L87.0273 77.2231L87.6482 76.2314C88.0024 75.6658 88.406 75.3152 88.859 75.1797C89.312 75.0441 89.836 75.1626 90.431 75.5352L93.7915 77.6395L94.24 76.9233L95.2646 77.565L94.8162 78.2811L96.3257 79.2264L95.5322 80.4934L94.0228 79.5482L93.0982 81.0246L92.0735 80.383L92.9981 78.9066Z" fill="#1F0C3E"/>
<path d="M85.382 88.3275C85.4667 88.7426 85.4447 89.1434 85.316 89.53C85.1868 89.9288 84.9395 90.2944 84.5741 90.6269L83.5417 89.4922L83.8206 89.2385C84.2501 88.8477 84.4778 88.4413 84.5039 88.0192C84.5236 87.6029 84.2884 87.1256 83.7985 86.5871L81.2613 83.7986L82.3575 82.8012L87.1781 88.0994L86.0819 89.0968L85.382 88.3275Z" fill="#1F0C3E"/>
<path d="M70.903 98.5246L70.574 87.1194L71.9721 86.488L72.0789 90.2625L77.5497 95.5232L76.045 96.2026L71.9615 92.0557L72.3011 97.8933L70.903 98.5246Z" fill="#1F0C3E"/>
</svg>
