<svg width="746" height="475" viewBox="0 0 746 475" fill="none" xmlns="http://www.w3.org/2000/svg">
<path d="M237.065 226.496C237.065 268.572 207.711 303.795 168.366 312.803C157.598 315.268 148.527 306.08 148.527 295.034V157.958C148.527 146.912 157.598 137.725 168.366 140.19C207.711 149.197 237.065 184.42 237.065 226.496Z" fill="#3F3D56"/>
<path d="M536.935 226.496C536.935 268.572 566.289 303.795 605.634 312.803C616.402 315.268 625.473 306.08 625.473 295.034V157.958C625.473 146.912 616.402 137.725 605.634 140.19C566.289 149.197 536.935 184.42 536.935 226.496Z" fill="#3F3D56"/>
<path d="M515.723 286.17C515.723 289.043 513.394 291.372 510.521 291.372V291.372C507.648 291.372 505.319 289.043 505.319 286.17V286.17C505.319 283.297 507.648 280.968 510.521 280.968V280.968C513.394 280.968 515.723 283.297 515.723 286.17V286.17ZM506.119 286.17C506.119 288.601 508.09 290.571 510.521 290.571V290.571C512.952 290.571 514.922 288.601 514.922 286.17V286.17C514.922 283.739 512.952 281.768 510.521 281.768V281.768C508.09 281.768 506.119 283.739 506.119 286.17V286.17Z" fill="#3F3D56"/>
<path d="M271.643 278.38C269.542 280.339 266.251 280.225 264.291 278.124V278.124C262.332 276.023 262.446 272.731 264.547 270.772V270.772C266.648 268.812 269.94 268.927 271.899 271.027V271.027C273.859 273.128 273.744 276.42 271.643 278.38V278.38ZM265.093 271.357C263.315 273.015 263.218 275.8 264.876 277.578V277.578C266.535 279.356 269.32 279.453 271.097 277.794V277.794C272.875 276.136 272.972 273.351 271.314 271.573V271.573C269.656 269.796 266.871 269.699 265.093 271.357V271.357Z" fill="#3F3D56"/>
<path d="M168 90C156.954 90 148 98.9543 148 110V332.979C148 344.025 156.954 352.979 168 352.979H606C617.046 352.979 626 344.025 626 332.979V110C626 98.9543 617.046 90 606 90H168ZM624.946 331.925C624.946 342.971 615.992 351.925 604.946 351.925H169.054C158.008 351.925 149.054 342.971 149.054 331.925V111.054C149.054 100.008 158.008 91.054 169.054 91.054H604.946C615.992 91.054 624.946 100.008 624.946 111.054V331.925Z" fill="#3F3D56"/>
<path d="M475.65 352.716C478.518 352.716 478.663 348.895 475.816 348.545V348.545C474.219 348.349 473.418 346.646 474.138 345.206L475.556 342.369C476.165 341.152 475.713 340.106 474.511 340.745V340.745C472.668 341.725 470.082 340.322 470.531 338.283L472.603 328.867C473.46 324.97 470.681 323.04 469.021 326.668C466.736 331.662 465.264 338.649 464.556 342.616C464.331 343.875 462.758 344.387 461.853 343.483L461.337 342.966C460.237 341.866 458.428 343.098 459.049 344.524V344.524C459.479 345.514 458.68 346.6 457.607 346.49C428.491 343.515 403.036 342.449 381.253 342.514C379.175 342.52 377.811 340.335 378.74 338.476L379.019 337.917C379.628 336.7 379.176 335.654 377.975 336.293V336.293C376.131 337.273 373.546 335.87 373.994 333.831L376.066 324.415C376.923 320.518 374.144 318.588 372.484 322.216C370.199 327.211 368.727 334.197 368.019 338.164C367.794 339.423 366.218 339.932 365.313 339.028V339.028C364.107 337.822 362.117 339.164 362.797 340.728V340.728C363.232 341.73 362.518 342.856 361.425 342.893C348.369 343.336 335.338 344.326 322.366 345.86C319.358 346.216 317.078 343.371 318.597 340.75C319.945 338.424 321.536 336.215 323.132 334.237C324.828 332.135 321.472 330.124 319.44 331.903V331.903C317.545 333.562 314.76 331.087 314.822 328.569C315.259 310.804 318.21 293.183 323.594 276.231C324.409 273.667 324.311 273.608 323.296 276.099C318.839 287.036 306.635 319.57 308.942 342.64L309.08 344.582C309.204 346.308 305.385 348.265 303.681 348.563V348.563C299.923 349.22 302.96 352.716 306.775 352.716H475.65Z" fill="#3F3D56"/>
<path opacity="0.3" d="M389.964 296.07C430.422 296.07 463.219 263.273 463.219 222.815C463.219 182.358 430.422 149.561 389.964 149.561C349.507 149.561 316.71 182.358 316.71 222.815C316.71 263.273 349.507 296.07 389.964 296.07Z" fill="black"/>
<path d="M375.297 148.541C367.323 138.754 352.388 138.713 344.359 148.454L321.736 175.903C315.582 183.369 315.656 194.17 321.911 201.552L368.063 256.02C376.041 265.436 390.56 265.45 398.556 256.049L420.629 230.099C426.88 222.75 426.993 211.986 420.899 204.507L375.297 148.541Z" fill="black"/>
<path opacity="0.1" d="M375.297 148.541C367.323 138.754 352.388 138.713 344.359 148.454L321.736 175.903C315.582 183.369 315.656 194.17 321.911 201.552L368.063 256.02C376.041 265.436 390.56 265.45 398.556 256.049L420.629 230.099C426.88 222.75 426.993 211.986 420.899 204.507L375.297 148.541Z" fill="black"/>
<path d="M319.66 190.277C316.501 189.882 314.798 186.408 317.034 184.141V184.141L357.387 143.231C360.276 140.302 361.254 138.597 365.361 138.37V138.37C373.971 137.894 376.12 147.669 369.446 153.129L325.285 189.261C324.121 190.213 322.618 190.646 321.126 190.46L319.66 190.277Z" fill="#F2F2F2"/>
<path d="M319.353 187.646C315.455 188.023 313.35 192.406 315.494 195.684L375.004 286.699C376.398 288.832 378.166 290.76 380.551 291.656C382.559 292.41 385.249 293.013 388.07 292.477C389.467 292.211 390.715 291.477 391.894 290.683L441.66 257.108C450.754 250.973 453.209 238.656 447.161 229.503L397.821 154.826C391.391 145.094 378.031 142.907 368.834 150.081L322.056 186.568C321.275 187.177 320.338 187.551 319.353 187.646V187.646Z" fill="black"/>
<path d="M377.356 152.914L336.588 182.21C336.351 182.38 336.297 182.709 336.467 182.946C336.637 183.182 336.966 183.236 337.203 183.066L377.971 153.77C378.208 153.601 378.262 153.271 378.092 153.035C377.922 152.799 377.593 152.745 377.356 152.914Z" fill="#3F3D56"/>
<path d="M389.945 275.865L335.899 194.152C335.738 193.91 335.411 193.843 335.168 194.003C334.926 194.164 334.859 194.491 335.019 194.734L389.066 276.447C389.226 276.69 389.553 276.756 389.796 276.596C390.039 276.435 390.106 276.108 389.945 275.865Z" fill="#3F3D56"/>
<path d="M439.78 246.562L396.417 278.466C396.182 278.639 396.132 278.969 396.304 279.203C396.477 279.438 396.807 279.488 397.041 279.316L440.404 247.411C440.639 247.238 440.689 246.908 440.517 246.674C440.344 246.439 440.014 246.389 439.78 246.562Z" fill="#3F3D56"/>
<path d="M441.954 234.891L385.977 154.465C385.811 154.226 385.483 154.167 385.244 154.333C385.005 154.5 384.946 154.828 385.113 155.067L441.089 235.493C441.255 235.732 441.584 235.791 441.823 235.625C442.061 235.458 442.12 235.13 441.954 234.891Z" fill="#3F3D56"/>
<path d="M367.96 138.301L316.979 185.09C316.846 185.211 316.838 185.417 316.959 185.549C317.08 185.681 317.286 185.69 317.418 185.569L368.4 138.779C368.532 138.658 368.541 138.452 368.42 138.32C368.298 138.188 368.093 138.179 367.96 138.301Z" fill="#3F3D56"/>
<path d="M372.243 138.701L318.948 185.751C318.813 185.869 318.8 186.075 318.919 186.21C319.038 186.344 319.243 186.357 319.378 186.238L372.673 139.189C372.808 139.07 372.821 138.864 372.702 138.73C372.583 138.595 372.377 138.582 372.243 138.701Z" fill="#3F3D56"/>
<path d="M375.601 139.64L320.269 185.762C320.131 185.877 320.113 186.082 320.228 186.22C320.343 186.358 320.548 186.377 320.686 186.262L376.018 140.14C376.156 140.025 376.174 139.82 376.059 139.682C375.944 139.544 375.739 139.525 375.601 139.64Z" fill="#3F3D56"/>
<path d="M604.714 228.21C606.019 227.546 606.019 225.447 604.713 224.783C603.932 224.386 603.16 223.959 602.428 223.512C601.633 223.027 600.468 223.885 600.785 224.76V224.76C600.997 225.348 600.562 225.969 599.937 225.969H572.772C572.481 225.969 572.245 226.205 572.245 226.496V226.496C572.245 226.787 572.481 227.023 572.772 227.023H599.936C600.562 227.023 600.997 227.644 600.785 228.232V228.232C600.468 229.108 601.633 229.966 602.428 229.481C603.161 229.034 603.933 228.607 604.714 228.21Z" fill="white"/>
<path d="M202.282 226.496C202.282 226.205 202.046 225.969 201.755 225.969H174.591C173.965 225.969 173.53 225.348 173.742 224.76V224.76C174.059 223.885 172.894 223.026 172.099 223.511C171.366 223.958 170.594 224.385 169.813 224.782C168.508 225.446 168.508 227.545 169.814 228.209C170.595 228.606 171.367 229.033 172.099 229.48C172.894 229.965 174.059 229.107 173.742 228.232V228.232C173.53 227.644 173.965 227.023 174.59 227.023H201.755C202.046 227.023 202.282 226.787 202.282 226.496V226.496Z" fill="white"/>
<circle cx="644" cy="466" r="9" fill="black"/>
<circle cx="692" cy="385" r="9" fill="black"/>
<circle cx="472" cy="433" r="9" fill="black"/>
<circle cx="737" cy="172" r="9" fill="black"/>
<circle cx="581" cy="27" r="9" fill="black"/>
<circle cx="422" cy="56" r="9" fill="black"/>
<circle cx="219" cy="9" r="9" fill="black"/>
<circle cx="108" cy="115" r="9" fill="black"/>
<circle cx="304" cy="466" r="9" fill="black"/>
<circle cx="158" cy="385" r="9" fill="black"/>
<circle cx="71" cy="267" r="9" fill="black"/>
<circle cx="9" cy="424" r="9" fill="black"/>
</svg>
