<svg width="28" height="28" viewBox="0 0 28 28" fill="none" xmlns="http://www.w3.org/2000/svg">
<path d="M23.9633 20.685L17.5 12.8333V5.83333H18.6667C19.3083 5.83333 19.8333 5.30833 19.8333 4.66667C19.8333 4.025 19.3083 3.5 18.6667 3.5H9.33333C8.69167 3.5 8.16667 4.025 8.16667 4.66667C8.16667 5.30833 8.69167 5.83333 9.33333 5.83333H10.5V12.8333L4.03667 20.685C3.66333 21.14 3.5 21.6533 3.5 22.1667C3.51167 23.3683 4.45667 24.5 5.83333 24.5H22.1667C23.555 24.5 24.5 23.3683 24.5 22.1667C24.5 21.6533 24.3367 21.14 23.9633 20.685Z" fill="#1F0C3E"/>
</svg>
