<svg width="30" height="30" viewBox="0 0 30 30" fill="none" xmlns="http://www.w3.org/2000/svg">
<path d="M15 0L16.1912 9.39571L21.101 1.29682L18.3677 10.3647L26.1472 4.96304L19.9619 12.1353L29.2658 10.3647L20.6981 14.4011L29.9178 16.5679L20.4491 16.7705L27.9904 22.5L19.2578 18.8338L23.8168 27.1353L17.3304 20.2341L18.1187 29.6722L15 20.7295L11.8813 29.6722L12.6696 20.2341L6.18322 27.1353L10.7422 18.8338L2.00962 22.5L9.55093 16.7705L0.0821714 16.5679L9.3019 14.4011L0.734152 10.3647L10.0381 12.1353L3.85283 4.96304L11.6323 10.3647L8.89895 1.29682L13.8088 9.39571L15 0Z" fill="black"/>
</svg>
